<svg width="128" height="128" viewBox="0 0 128 128" version="1.1" id="svg5" inkscape:version="1.1.1 (3bf5ae0d25, 2021-09-20)" sodipodi:docname="youtube2.svg" xmlns:inkscape="http://www.inkscape.org/namespaces/inkscape" xmlns:sodipodi="http://sodipodi.sourceforge.net/DTD/sodipodi-0.dtd" xmlns="http://www.w3.org/2000/svg" xmlns:svg="http://www.w3.org/2000/svg"><sodipodi:namedview id="namedview7" pagecolor="#ffffff" bordercolor="#666666" borderopacity="1.0" inkscape:pageshadow="2" inkscape:pageopacity="0.0" inkscape:pagecheckerboard="0" inkscape:document-units="mm" showgrid="false" units="px" width="128px" fit-margin-left="0" fit-margin-right="0" fit-margin-top="0" fit-margin-bottom="0" height="85.04px" inkscape:zoom="0.35355339" inkscape:cx="-305.47013" inkscape:cy="4.2426407" inkscape:window-width="1920" inkscape:window-height="1001" inkscape:window-x="-9" inkscape:window-y="-9" inkscape:window-maximized="1" inkscape:current-layer="layer1" /><defs id="defs2" /><g inkscape:label="Layer 1" inkscape:groupmode="layer" id="layer1" transform="translate(-355.86644,-540.85847)"><g id="g15" transform="translate(359.60908,563.13233)"><path class="youtube0" d="M 118.95,13.28 C 117.55,8.05 113.44,3.94 108.21,2.54 98.73,0 60.74,0 60.74,0 60.74,0 22.75,0 13.28,2.54 8.05,3.94 3.94,8.05 2.54,13.28 0,22.75 0,42.52 0,42.52 c 0,0 0,19.77 2.54,29.24 1.4,5.23 5.51,9.34 10.74,10.74 9.47,2.54 47.46,2.54 47.46,2.54 0,0 37.99,0 47.46,-2.54 5.23,-1.4 9.34,-5.51 10.74,-10.74 2.54,-9.47 2.54,-29.24 2.54,-29.24 0,0 0,-19.77 -2.53,-29.24 z" id="path11" /><polygon class="youtube1" points="80.16,42.52 48.59,24.3 48.59,60.74 " id="polygon13" /></g></g><style type="text/css" id="style9">.youtube0{fill:#FE0000;}.youtube1{fill:#FEFEFE;}</style></svg>
