<svg xmlns="http://www.w3.org/2000/svg" viewBox="0 0 80 80"><g id="cat" fill-rule="evenodd"><path fill="#000000" fill-opacity="1" class="c0" d="M38,47h3v3h3v2h3v3h-3v-2h-3v-2h-3v2h-3v2h-3v-3h3v-2h3z" /><path fill="#24fad6" fill-opacity="1" class="c1" d="M25,14h3v4h3v4h3v3h-3v-3h-3v-4h-3zM64,14h3v17h3v28h-3v-28h-3zM22,37h9v2h-3v3h3v4h-9zM63,59h3v4h-3v3h-3v-3h3z" /><path fill="#ed1e90" fill-opacity="1" class="c2" d="M12,14h3v17h-3v28h3v4h3v3h-3v-3h-3v-4h-3v-28h3zM51,14h3v4h-3v4h-3v3h-3v-3h3v-4h3zM48,37h9v2h-3v3h3v4h-9z" /><path fill="#ffffff" fill-opacity="1" class="c3" d="M15,14h10v4h3v4h3v3h17v-3h3v-4h3v-4h10v17h3v28h-4v4h-3v3h-42v-3h-3v-4h-3v-28h3zM28,39h3v-2h-9v9h9v-4h-3zM54,39h3v-2h-9v9h9v-4h-3zM38,51h3v2h3v2h3v-3h-3v-2h-3v-3h-3v3h-3v2h-3v3h3v-2h3z" /></g></svg>
